<?xml version="1.0" encoding="utf-8"?>
<!-- Generator: Adobe Illustrator 25.4.1, SVG Export Plug-In . SVG Version: 6.00 Build 0)  -->
<svg version="1.1" id="Layer_1" xmlns="http://www.w3.org/2000/svg" xmlns:xlink="http://www.w3.org/1999/xlink" x="0px" y="0px"
	 viewBox="0 0 168.8 58.9" style="enable-background:new 0 0 168.8 58.9;" xml:space="preserve">
<style type="text/css">
	.st0{fill:#781E19;}
	.st1{fill:#955855;}
	.st2{fill:#A26C6A;}
	.st3{fill:#AA7775;}
	.st4{fill:#D6BDBB;}
	.st5{fill:#FFFFFF;}
	.st6{fill:#FCFCFE;}
	.st7{fill:#C29D9B;}
	.st8{fill:#D6A64F;}
	.st9{fill:#641514;}
	.st10{fill:#181412;}
	.st11{fill:#F2E1C5;}
	.st12{fill:#CC111B;}
	.st13{fill:#C7121B;}
	.st14{fill:#C4111C;}
	.st15{enable-background:new    ;}
	.st16{fill:#363636;}
</style>
<g>
	<g id="Group_507" transform="translate(-26.148 -25.545)">
		<path id="Path_340" class="st0" d="M55.8,84.4c-6.4,0-12.6-2.1-17.8-5.9c-3.3-2.4-6-5.5-8-9.1c-1.9-3.3-3.2-7-3.6-10.8
			c-0.8-6.1,0.4-12.3,3.3-17.7c1.9-3.5,4.6-6.7,7.8-9.1c12.1-9.5,29.4-8.1,40,3.1c5.7,6.1,8.6,14.3,7.9,22.6
			c-0.5,6.4-3.1,12.4-7.4,17.2c-2.3,2.5-4.9,4.6-7.9,6.2c-2.5,1.3-5.2,2.3-8.1,2.9C59.9,84.2,57.8,84.4,55.8,84.4z"/>
		<path id="Path_341" class="st1" d="M55.3,84.4h0.8l0,0l0,0H55.3L55.3,84.4L55.3,84.4z"/>
		<path id="Path_342" class="st2" d="M56.1,84.4L56.1,84.4c0.2,0,0.3-0.1,0.5,0H56.1z"/>
		<path id="Path_343" class="st3" d="M55.3,84.4L55.3,84.4h-0.4C55,84.3,55.2,84.4,55.3,84.4z"/>
		<path id="Path_344" class="st4" d="M57.1,84.4L57.1,84.4h-0.3C56.9,84.3,57,84.4,57.1,84.4z"/>
		<path id="Path_345" class="st5" d="M55.8,78c-5,0-9.8-1.6-13.8-4.6c-2.6-1.9-4.7-4.3-6.3-7.1c-1.5-2.6-2.5-5.5-2.8-8.5
			c-0.6-4.8,0.3-9.6,2.6-13.8c1.5-2.8,3.6-5.2,6-7.1c9.5-7.4,23-6.4,31.2,2.4c4.5,4.7,6.7,11.1,6.1,17.6c-0.4,5-2.4,9.7-5.8,13.4
			c-1.8,2-3.9,3.6-6.2,4.9c-2,1.1-4.1,1.8-6.3,2.3C59,77.8,57.4,78,55.8,78z"/>
		<path id="Path_346" class="st5" d="M58.5,80.6c0-0.4,0-0.4,0.4-0.5c-0.1-0.2-0.2-0.4-0.5-0.3c-0.2,0.1-0.4,0-0.4-0.2
			c-0.2-0.3-0.4-0.5-0.7-0.8c-0.2-0.2-0.5-0.3-0.8-0.4c-0.4-0.1-0.8,0.2-0.9,0.6c0,0.1,0,0.2,0,0.3c0,0.2,0.1,0.3,0.2,0.5
			c-1.5,0-3-0.1-4.5-0.4c0.1,0.2,0.1,0.4,0.3,0.4c0.4,0.1,0.4,0.1,0.3,0.5v0.1c-0.1,0.2,0,0.5-0.2,0.6s-0.4-0.1-0.6-0.1
			s-0.2-0.1-0.2-0.2c0-0.2,0.1-0.4,0.1-0.7c0.1-0.4-0.1-0.8-0.3-1c-0.2-0.2-0.5-0.2-0.7,0c0,0.1-0.1,0.1-0.2,0.1
			c-0.2-0.1-0.4-0.1-0.6-0.2c-0.1,0-0.1-0.1-0.1-0.1c-0.1-0.5-0.3-1-0.6-1.4c-0.2-0.3-0.5-0.4-0.8-0.5s-0.7,0.2-0.8,0.5
			c-0.1,0.2-0.1,0.5-0.1,0.7c-0.4-0.2-0.8-0.3-1.2-0.5c-0.1-0.1-0.1-0.1-0.1-0.2c0-0.4-0.1-0.9-0.3-1.2c-0.1-0.2-0.2-0.4-0.4-0.6
			c-0.3-0.3-0.8-0.3-1.1,0c-0.1,0.1-0.2,0.2-0.2,0.3c-0.1,0.2-0.1,0.3-0.1,0.5L42.7,76c0,0.3,0,0.5,0.3,0.6c0.1,0,0.1,0.1,0.1,0.2
			c-0.4,0.6-0.7,1.2-1.1,1.8c-0.1,0.1-0.1,0.2,0,0.3s0.2,0.2,0.2,0.3l1.3-2.2c0.2,0.2,0.5,0.3,0.8,0.4c0.1,0,0.2,0.1,0.1,0.2
			c0,0.2-0.1,0.4-0.3,0.6c-0.1,0.1-0.3,0.2-0.3-0.1c0-0.1-0.1-0.2-0.2-0.2s-0.2,0.1-0.2,0.2s0,0.2,0,0.3c0.1,0.6,0.2,1.1,0.4,1.7
			c0,0.1,0.1,0.1,0.2,0.1s0.2-0.1,0.1-0.2c-0.2-0.2-0.3-0.5-0.3-0.8c-0.1-0.2-0.1-0.3,0.2-0.3c0.1,0,0.2-0.1,0.3-0.2
			c0.1-0.1,0.1-0.1,0.2,0c0.1,0.3,0.4,0.6,0.8,0.7c-0.1,0.2-0.2,0.5-0.3,0.7c-0.1,0.1-0.1,0.2,0,0.3s0.1,0.2,0.2,0.3l0.9-1.9
			c0-0.1,0.1-0.2,0.2-0.3c0.1-0.1,0.2,0.1,0.4,0.1c0.2,0,0.2,0.1,0.1,0.2c-0.2,0.5-0.4,1.1-0.6,1.6c-0.2,0.3-0.1,0.6,0.2,0.8
			c0,0,0-0.1,0.1-0.1c0.2-0.6,0.5-1.3,0.7-1.9c0.1-0.1,0.1-0.3,0.2-0.3c0.1-0.1,0.2,0.1,0.3,0.1c0.6,0.2,1.2,0.4,1.8,0.5
			c0.2,0.1,0.1,0.2,0.1,0.2s-0.1,0.2-0.2,0.2c-0.2-0.1-0.3-0.1-0.5-0.2c-0.3-0.1-0.5-0.1-0.8,0.1c-0.2,0.2-0.2,0.5,0,0.7
			c0,0.1,0,0.1-0.1,0.2s-0.3,0-0.3-0.1c-0.1-0.1,0-0.2,0.1-0.3c0.1-0.1,0.1-0.1,0-0.2s-0.1-0.2-0.2-0.2c0-0.1-0.1-0.1-0.1-0.1
			c-0.2,0.1-0.4,0.4-0.3,0.6v0.1c0.1,0.1,0.2,0.2,0.3,0.3c0.1,0.1,0.1,0.1,0.1,0.2c-0.1,0.1-0.1,0.3,0,0.4c0.2,0.4,0.7,0.6,1.2,0.5
			c0.2,0,0.3-0.2,0.4-0.2c0.1,0.1,0.1,0.3,0.2,0.5c0,0.1,0.1,0.1,0.2,0.1s0.1-0.1,0.1-0.2c-0.1-0.2-0.2-0.3-0.3-0.5
			c-0.1-0.1-0.2-0.2,0.1-0.3c0.2-0.1,0.2-0.2,0.2-0.4c0-0.2-0.2-0.3-0.4-0.3c-0.2,0-0.3,0-0.3,0.2c0,0.1-0.1,0.1-0.1,0.1
			c-0.1,0-0.2-0.1-0.4-0.1c-0.2-0.1-0.3-0.3-0.2-0.5c0.1-0.2,0.3-0.3,0.5-0.2l0,0c0.2,0,0.3,0.1,0.5,0.1c0.2,0.1,0.4,0.2,0.6,0.1
			s0.1-0.4,0.2-0.6c0-0.1,0-0.2,0.1-0.2s0.2,0.1,0.2,0.2c0,0.2,0.2,0.3,0.3,0.4c0.2,0.1,0.2,0.3,0.2,0.5s-0.1,0.2-0.2,0.2
			c-0.2,0-0.3,0-0.3,0.2c0,0.3,0.2,0.6,0.5,0.8c0.2,0.1,0.3,0,0.3-0.1c0-0.4,0.2-0.3,0.4-0.3c0.1,0,0.1,0,0.2,0
			c0.3,0.1,0.3,0.1,0.2,0.3c-0.1,0.5-0.1,0.5,0.3,0.8c0.1-0.7,0.2-1.4,0.4-2.1c0-0.1,0-0.3,0.1-0.4s0.2,0,0.3,0h0.1l1.5,0.1
			c0.1,0,0.1,0,0.1,0.1c0,0.3,0,0.6-0.1,0.9c-0.1-0.1-0.2-0.2-0.3-0.3c-0.2-0.2-0.4-0.3-0.7-0.3c-0.4-0.1-0.7,0.2-0.8,0.5
			c0,0.1,0,0.1,0,0.2c0.1,0.6,0.7,0.9,1.3,0.8h0.1c0.1-0.1,0.2-0.1,0.3-0.1c-0.1,0.4,0,0.7,0.4,0.8c0-0.7,0.1-1.4,0.2-2.1
			c0-0.1,0-0.3,0-0.4c0.1-0.2,0.3,0,0.4-0.1c0.2-0.1,0.2,0,0.2,0.2c0,0.6,0,1.2,0,1.7s0,0.5,0.5,0.7c0-0.8,0-1.6,0-2.3
			c0-0.2,0-0.3,0.3-0.3c0.5,0,0.9-0.1,1.4-0.1s0.3-0.1,0.4,0.3c0,0.1,0,0.2-0.2,0.2s-0.5,0.1-0.8,0c-0.4,0-0.7,0.2-0.7,0.6
			c0,0.2,0,0.3,0.1,0.5c0.2,0.3,0.4,0.6,0.7,0.8c0.1,0.1,0.1,0.2,0.2,0.1s0-0.2-0.1-0.2c-0.3-0.2-0.4-0.5-0.5-0.8
			c0-0.2,0.1-0.4,0.3-0.4h0.1c0.2,0,0.5,0,0.7-0.1c0.1,0,0.2,0,0.2,0.1c0,0.2,0.1,0.5,0,0.8c0,0.4,0.2,0.6,0.5,0.6
			c0-0.1,0-0.2,0-0.3C58.6,81.8,58.6,81.2,58.5,80.6z M43.4,76.6c-0.1,0-0.1-0.1-0.1-0.2l0,0c0.2-0.4,0.7-0.8,1.2-0.3
			c0.3,0.4,0.5,0.9,0.6,1.4C44.5,77.3,44,77,43.4,76.6L43.4,76.6z M45.4,78.2c-0.1,0.2-0.2,0.3-0.2,0.5c-0.1,0.2-0.2,0.2-0.4,0.2
			c-0.3,0-0.6-0.2-0.6-0.5c0-0.1,0-0.1,0-0.2c0.1-0.2,0.1-0.3,0.1-0.5c0-0.1,0-0.1,0.1-0.1c0.3,0.1,0.5,0.3,0.8,0.4
			C45.4,78.1,45.4,78.1,45.4,78.2z M47,78.3c-0.1-0.1-0.1-0.1-0.1-0.2c0.2-0.5,0.5-0.9,1.2-0.4c0.4,0.3,0.7,0.8,0.8,1.2
			C48.2,78.8,47.6,78.6,47,78.3L47,78.3z M47.9,81c0.2,0.1,0.3,0.2,0.5,0.2c-0.2,0.2-0.4,0.3-0.6,0.3c-0.1,0-0.3,0-0.3-0.2
			c0-0.1,0-0.2,0.1-0.3C47.6,81,47.8,81,47.9,81L47.9,81z M50.5,80c-0.1,0.1-0.3-0.2-0.3-0.4c0-0.2,0.1-0.3,0.3-0.3
			c0.1,0,0.2,0.1,0.2,0.2C50.6,79.7,50.6,79.9,50.5,80L50.5,80z M54.3,81.5c-0.2,0.1-0.5,0.2-0.7,0.3c-0.3,0-0.5-0.1-0.6-0.3
			c0-0.2,0.2-0.4,0.5-0.5c0.1,0,0.1,0,0.2,0C54,81,54.2,81.2,54.3,81.5C54.4,81.5,54.3,81.5,54.3,81.5L54.3,81.5z M57.2,79.9
			c-0.4,0-0.8,0.1-1.2,0c-0.1,0-0.2,0-0.2-0.2c-0.1-0.4,0.1-0.7,0.5-0.8c0.1,0,0.3,0,0.4,0c0.5,0.2,0.9,0.5,1.2,0.9
			C57.6,79.8,57.4,79.9,57.2,79.9L57.2,79.9z"/>
		<path id="Path_347" class="st5" d="M68.8,77.2c-0.2-0.3-0.2-0.3,0.1-0.5l0,0c-0.2-0.2-0.5-0.2-0.7,0c-0.3,0.2-0.7,0.4-1,0.6
			c-1,0.4-1.9,0.9-2.9,1.2c-1.2,0.4-2.4,0.8-3.6,1c-0.5,0.1-1,0.2-1.4,0.3c0.1,0.2,0.4,0.3,0.7,0.2c0.3-0.1,0.7-0.1,1-0.2
			c0.1,0,0.1,0,0.2,0.1c0,0.2,0.1,0.5,0.1,0.7c-0.6-0.3-0.7-0.3-1-0.2c-0.3,0.1-0.4,0.3-0.4,0.6c0.1,0.5,0.6,0.8,1.1,0.6
			c0.1,0,0.2-0.1,0.3-0.2l0,0c0.1,0.3,0.1,0.7,0.5,0.8c0.1,0,0.1-0.1,0.1-0.2c-0.1-0.3-0.1-0.5-0.2-0.8s0.1-0.5,0.3-0.7
			c0.2-0.1,0.4-0.1,0.5,0.1c0,0.1,0.1,0.1,0.1,0.2c0,0.2,0,0.4-0.1,0.6c-0.1,0.1,0,0.2,0.1,0.2s0.1,0.1,0.2,0.1
			c0.1,0.1,0.1,0,0.2-0.1c0.1-0.2,0.1-0.5,0.1-0.7c-0.2-0.7-0.8-1-1.3-0.6c0-0.1,0-0.1,0-0.2c-0.1-0.5-0.1-0.5,0.4-0.6
			c0.3,0,0.6-0.1,0.9-0.3c0.1-0.1,0.1,0,0.2,0.1c0.1,0.2,0.2,0.5,0.2,0.7c0.1,0.2,0.1,0.2-0.1,0.3c-0.2,0.1-0.2,0.2-0.1,0.4
			c0.2,0.2,0.3,0.3,0.6,0.4c0.1,0.1,0.3,0.1,0.4,0s0-0.2,0-0.4s0-0.2,0.1-0.2c0.2-0.1,0.4-0.1,0.6-0.2c0.1,0,0.2,0,0.2,0.1
			s0,0.1,0.1,0.2C65.4,81,65.5,81,66,81c0-0.1-0.1-0.2-0.1-0.2c-0.2-0.7-0.5-1.4-0.7-2.1c0,0-0.1-0.1,0-0.2c0.7-0.3,1.4-0.6,2.1-0.9
			c0.2-0.1,0.2-0.1,0.3,0.1c0,0.1,0,0.1,0.1,0.2c0.1,0.2,0.1,0.2-0.1,0.3c-0.4,0.2-0.8,0.4-1.2,0.6c0.2,0.1,0.3,0.1,0.5,0.2
			s0.3,0.2,0.5,0.3c0.1,0.1,0.2,0.3,0,0.5c-0.1,0.1-0.2,0.1-0.3,0.1c-0.2,0-0.4,0-0.5-0.1c-0.2-0.1-0.4-0.3-0.6-0.5
			c0,0-0.1-0.1-0.1,0c-0.1,0-0.1,0.1,0,0.1c0.4,0.5,0.9,0.8,1.6,0.9c0.3,0,0.6-0.2,0.6-0.5c0-0.2-0.1-0.4-0.2-0.5
			c-0.2-0.1-0.3-0.2-0.5-0.3c0.2-0.1,0.4-0.2,0.6-0.3c0.1-0.1,0.2,0,0.2,0.1c0.1,0.3,0.3,0.6,0.4,0.9c0,0.1,0.1,0.2,0.2,0.2
			s0.2,0,0.4,0c0-0.1,0-0.2-0.1-0.2c-0.3-0.6-0.5-1.2-0.8-1.7c-0.1-0.1-0.1-0.2-0.2-0.3c0-0.2,0.2-0.1,0.3-0.2
			c0.1-0.2,0.2-0.1,0.2,0c0.3,0.5,0.6,1,0.9,1.5c0.2,0.4,0.3,0.4,0.7,0.3L68.8,77.2z M61.4,80.9c-0.1,0.2-0.3,0.3-0.5,0.4
			c-0.1,0.1-0.3,0-0.4-0.1l0,0c0-0.1,0-0.2,0-0.2C60.7,80.7,61,80.6,61.4,80.9L61.4,80.9C61.4,80.8,61.4,80.8,61.4,80.9z M64.8,79.8
			C64.8,79.9,64.8,79.9,64.8,79.8c-0.3,0.1-0.6,0.3-0.8,0.2s-0.2-0.4-0.3-0.6C63.5,79,63.6,79,64,78.9c0.4-0.2,0.4-0.2,0.6,0.3
			L64.8,79.8C64.9,79.8,64.9,79.8,64.8,79.8L64.8,79.8z"/>
		<path id="Path_348" class="st5" d="M81.2,54.9c0.6,0.2,1.2,0.3,1.7,0.5c0.2,0.1,0.6,0.1,0.7,0.2c0.1,0.2,0,0.5,0.1,0.7
			s-0.1,0.3-0.3,0.3c-1,0-1.9,0.1-2.9,0.2c-0.2,0-0.3,0-0.3-0.2c0-0.5,0-0.5,0.5-0.6c0.7,0,1.4-0.1,2.2-0.1
			c-0.8-0.2-1.6-0.4-2.3-0.7c-0.1,0-0.3,0-0.3-0.1c0-0.2,0-0.4,0-0.5s0.1-0.1,0.2-0.1c0.7-0.2,1.5-0.5,2.2-0.6c0.1,0,0.1,0,0.2-0.1
			L81,53.7c-0.2,0-0.4,0-0.6,0c-0.1,0-0.2,0-0.2-0.2c-0.1-0.6-0.1-0.6,0.5-0.6c0.9,0,1.9,0.1,2.8,0.1c0.1,0,0.2,0,0.2,0.2
			c0,0.3,0.1,0.6,0,0.8c-0.1,0.2-0.5,0.2-0.8,0.3C82.4,54.6,81.8,54.8,81.2,54.9z"/>
		<path id="Path_349" class="st5" d="M35.4,70.4l-1.3,1.1c0,0-0.1,0-0.1,0.1c-0.1,0.1-0.3,0.3-0.4,0.3c-0.2-0.1-0.3-0.3-0.4-0.4
			s0-0.1,0-0.2c0.8-0.7,1.7-1.4,2.6-2c0.1-0.1,0.1,0,0.2,0c0.1,0.2,0.2,0.3,0.3,0.4c0.1,0.1,0.1,0.2,0,0.2c-0.3,0.6-0.5,1.2-0.8,1.9
			c-0.1,0.2-0.2,0.4-0.3,0.6c0.2-0.1,0.3-0.2,0.4-0.3c0.5-0.4,1-0.8,1.4-1.2c0.1-0.1,0.2-0.1,0.2,0c0.4,0.4,0.4,0.4-0.1,0.8
			S36,72.6,35.5,73c-0.1,0.1-0.2,0.1-0.3,0.2c-0.2,0.1-0.4,0.4-0.4,0.3c-0.2-0.2-0.4-0.4-0.6-0.6c0-0.1,0-0.1,0-0.2
			c0.3-0.7,0.6-1.4,0.9-2.1C35.4,70.5,35.4,70.5,35.4,70.4z"/>
		<path id="Path_350" class="st5" d="M30.7,50.2c-0.7-0.1-1.4-0.2-2.2-0.3c-0.1,0-0.2,0-0.2-0.2c0.1-0.5,0.1-0.6,0.6-0.5
			c0.9,0.1,1.8,0.3,2.8,0.4c0.2,0,0.2,0,0.2,0.2c-0.1,0.6-0.1,0.6-0.7,0.8c-0.4,0.1-0.7,0.3-1.1,0.4s-0.7,0.2-1.1,0.4
			c0.3,0,0.6,0.1,0.9,0.1c0.5,0.1,0.9,0.1,1.4,0.2c0.1,0,0.2,0.1,0.2,0.2c-0.1,0.5-0.1,0.5-0.6,0.5c-0.9-0.2-1.8-0.3-2.8-0.4
			c-0.2,0-0.2-0.1-0.2-0.2c0-0.5,0.3-0.9,0.8-1c0.6-0.2,1.2-0.4,1.8-0.6C30.6,50.3,30.7,50.3,30.7,50.2z"/>
		<path id="Path_351" class="st5" d="M29.2,59.2c0.5-0.1,1.1-0.2,1.6-0.2c0.3,0,0.6-0.1,0.9-0.1c0.1,0,0.1,0,0.2,0.1
			c0.1,0.6,0.1,0.6-0.5,0.7c-0.9,0.1-1.8,0.2-2.8,0.3c-0.2,0-0.2,0-0.2-0.2c-0.2-0.4,0-0.9,0.4-1.1c0.6-0.3,1.1-0.8,1.7-1.1
			c-0.2,0-0.3,0.1-0.5,0.1c-0.6,0.1-1.1,0.2-1.7,0.2c-0.1,0-0.2,0-0.2-0.1l0,0c-0.1-0.6-0.1-0.5,0.5-0.6c0.9-0.1,1.8-0.2,2.8-0.4
			c0.2,0,0.2,0,0.2,0.2c0.2,0.4,0,0.8-0.4,1s-0.7,0.5-1.1,0.8C29.7,58.9,29.5,59.1,29.2,59.2z"/>
		<path id="Path_352" class="st5" d="M70.5,34.4c0.1-0.1,0.2-0.2,0.2-0.2c0.3-0.5,0.7-1.1,1-1.6c0.1-0.1,0.1-0.1,0.2,0
			c0.5,0.3,0.5,0.3,0.2,0.8c-0.5,0.8-1,1.5-1.5,2.3c-0.1,0.1-0.1,0.2-0.3,0.1c-0.5-0.4-0.5-0.4-0.5-1s0.1-1.4,0.2-2.1
			c-0.1,0-0.1,0.1-0.2,0.2c-0.4,0.6-0.8,1.2-1.1,1.7c-0.1,0.1-0.1,0.2-0.3,0.1C68,34.4,68,34.4,68.2,34c0.5-0.8,1-1.5,1.5-2.3
			c0.1-0.1,0.2-0.2,0.3-0.1c0.1,0,0.1,0.1,0.2,0.1c0.4,0.1,0.4,0.4,0.4,0.8C70.7,33,70.7,33.7,70.5,34.4z"/>
		<path id="Path_353" class="st5" d="M82.5,62.5c-1-0.3-2-0.7-3-1c-0.1,0-0.1-0.1-0.2,0c-0.3,0.6-0.5,1.2-0.5,1.8c0,0,0,0.1,0,0.2
			v0.1c0.2,0.7,0.8,1.2,1.5,1.3c0.7,0.2,1.4-0.1,1.7-0.7c0.3-0.5,0.5-1.1,0.6-1.6C82.6,62.5,82.6,62.5,82.5,62.5z M81.8,63.2
			c-0.1,0.5-0.4,0.9-0.9,1c-0.6,0.1-1.1-0.2-1.4-0.7c-0.1-0.1-0.1-0.3-0.1-0.4s0-0.1,0-0.2c0.1-0.6,0.1-0.6,0.6-0.4s1,0.3,1.5,0.5
			C81.8,63.1,81.8,63.1,81.8,63.2L81.8,63.2z"/>
		<path id="Path_354" class="st5" d="M35.3,68.2c-0.2-0.6-0.6-1.1-1-1.5c-0.3-0.3-0.7-0.4-1.1-0.4c-0.6,0-1.1,0.3-1.5,0.7
			c-0.3,0.3-0.4,0.8-0.3,1.2c0.2,0.7,0.5,1.2,0.9,1.8c0.1,0.1,0.1,0.1,0.2,0c0.9-0.5,1.8-1,2.7-1.6C35.3,68.3,35.3,68.3,35.3,68.2z
			 M34.3,68c-0.6,0.3-1.2,0.7-1.8,1c-0.1,0.1-0.2,0-0.2-0.1c-0.3-0.3-0.4-0.8-0.2-1.2c0.2-0.4,0.7-0.7,1.1-0.7c0.5,0,1,0.3,1.1,0.8
			C34.4,67.9,34.4,67.9,34.3,68z"/>
		<path id="Path_355" class="st5" d="M79.1,40.1c-0.8-0.3-1.6-0.2-2.2,0.4c-0.5,0.4-0.7,1.1-0.4,1.7c0.2,0.7,0.8,1.1,1.5,1.1
			s1.4-0.4,1.8-1C80.3,41.7,80,40.6,79.1,40.1C79.2,40.2,79.1,40.2,79.1,40.1z M79,42.1c-0.3,0.3-0.7,0.5-1.1,0.5
			c-0.4,0-0.8-0.2-0.8-0.6c0-0.2,0-0.3,0.1-0.5c0.3-0.5,0.8-0.8,1.4-0.8c0.3,0,0.6,0.2,0.8,0.5C79.4,41.6,79.3,41.9,79,42.1L79,42.1
			z"/>
		<path id="Path_356" class="st5" d="M73.6,34.3c-0.6,0-1.2,0.4-1.5,0.9c-0.4,0.5-0.4,1.1-0.1,1.6c0.3,0.6,0.9,1,1.5,1
			c0.7,0,1.4-0.4,1.7-1.1c0.4-0.8,0.1-1.8-0.7-2.2C74.2,34.4,73.9,34.3,73.6,34.3z M73.5,37.1c-0.3,0-0.7-0.1-0.8-0.4
			c-0.1-0.3-0.1-0.7,0.2-1c0.2-0.2,0.4-0.4,0.6-0.5S74,35,74.2,35c0.3,0.1,0.6,0.4,0.6,0.7C74.6,36.4,74.1,37,73.5,37.1L73.5,37.1z"
			/>
		<path id="Path_357" class="st5" d="M47.7,28.6c-0.9,0-1.7,0.7-1.7,1.6l0,0c-0.1,1,0.7,1.8,1.7,1.9c0.9,0.1,1.7-0.6,1.8-1.5v-0.1
			C49.5,29.5,48.8,28.6,47.7,28.6C47.8,28.6,47.7,28.6,47.7,28.6z M48.1,31.5c-0.4,0.1-0.8,0-1-0.3c-0.3-0.3-0.4-0.8-0.3-1.2
			c0-0.3,0.2-0.6,0.5-0.7c0.3-0.1,0.7,0,0.9,0.2c0.3,0.3,0.4,0.7,0.5,1.1C48.6,31.1,48.5,31.4,48.1,31.5L48.1,31.5z"/>
		<path id="Path_358" class="st5" d="M68.7,30.5C68.7,30.5,68.7,30.6,68.7,30.5c-0.5,1-0.9,2-1.4,2.9c-0.1,0.2-0.1,0.2-0.3,0.1
			c-0.1-0.1-0.2-0.1-0.3-0.2c-0.3,0-0.2-0.2-0.1-0.3c0.2-0.3,0.3-0.6,0.5-1c0.1-0.1,0-0.1-0.1-0.2c-0.3-0.1-0.7-0.3-1-0.4
			c-0.1-0.1-0.1,0-0.2,0.1c-0.2,0.3-0.3,0.7-0.5,1c-0.1,0.1-0.1,0.2-0.2,0.1c-0.2-0.1-0.4-0.1-0.5-0.3s0.1-0.3,0.2-0.5
			c0.4-0.8,0.8-1.6,1.1-2.4c0.1-0.2,0.2-0.2,0.3-0.1c0.1,0.1,0.2,0.1,0.3,0.2c0.2,0,0.2,0.2,0.1,0.3c-0.2,0.3-0.3,0.6-0.4,0.9
			c-0.1,0.1,0,0.1,0.1,0.2c0.3,0.1,0.7,0.3,1,0.4c0.1,0.1,0.2,0,0.2-0.1c0.1-0.3,0.3-0.6,0.4-0.9c0.1-0.1,0.1-0.2,0.2-0.1
			c0.1,0.1,0.3,0.1,0.4,0.2C68.6,30.4,68.7,30.4,68.7,30.5z"/>
		<path id="Path_359" class="st5" d="M80.1,43.9c0.5,0,1,0.2,1.3,0.5c0.4,0.4,0.6,1,0.7,1.5c0,0.1,0,0.2-0.2,0.2s-0.3,0.1-0.4,0
			c-0.1,0-0.1-0.2-0.1-0.4c0-0.1-0.1-0.2-0.1-0.3c-0.1-0.5-0.5-0.8-1-0.8s-1,0.3-1.2,0.8c-0.2,0.4,0.1,0.7,0.2,1c0,0,0.1,0.1,0.1,0
			l0,0c0.2-0.1,0.4-0.1,0.6-0.2c0.1,0,0-0.1,0-0.1c0-0.1-0.1-0.2-0.1-0.3c0-0.1,0-0.1,0.1-0.2c0.4-0.2,0.4-0.2,0.6,0.2
			c0.1,0.2,0.2,0.4,0.3,0.7c0,0.1,0,0.1-0.1,0.2c-0.5,0.2-1,0.4-1.4,0.6c-0.1,0-0.2,0-0.3-0.1c-0.5-0.6-0.8-1.3-0.7-2.1
			c0.1-0.7,0.7-1.1,1.4-1.3C79.9,43.9,80,43.9,80.1,43.9z"/>
		<path id="Path_360" class="st5" d="M80.9,66.6c-0.8-0.4-1.6-0.8-2.4-1.2c-0.5-0.3-0.5-0.3-0.8,0.2c-0.1,0.2,0,0.2,0.1,0.3
			c0.3,0.1,0.6,0.3,0.9,0.4c0.1,0.1,0.2,0.1,0.1,0.2c-0.1,0.3-0.4,0.4-0.7,0.3l0,0c-0.2-0.1-0.5-0.1-0.8-0.2c-0.1,0-0.2,0-0.2,0.1
			c-0.1,0.2-0.2,0.4-0.3,0.6c0.6,0,1.2,0.4,1.8,0.1c0,0.1,0,0.2,0,0.3c0.2,0.5,0.7,0.8,1.2,0.6c0.2-0.1,0.4-0.2,0.5-0.3
			c0.3-0.4,0.6-0.8,0.7-1.3C81.1,66.7,81.1,66.7,80.9,66.6z M80.2,67.3c-0.1,0.1-0.1,0.3-0.2,0.4c-0.1,0.2-0.3,0.2-0.5,0.1
			s-0.3-0.3-0.3-0.5s0.1-0.4,0.2-0.5c0.1-0.1,0.1,0,0.2,0c0.2,0.1,0.4,0.2,0.6,0.3C80.2,67.1,80.2,67.1,80.2,67.3L80.2,67.3z"/>
		<path id="Path_361" class="st5" d="M39,37.1c-0.1,0.5-0.4,1-0.9,1.2c-0.4,0.2-0.9,0.2-1.3-0.1c-0.2-0.1-0.4-0.3-0.5-0.5
			c-0.4-0.4-0.8-0.7-1.2-1.1c-0.1-0.1-0.1-0.2,0-0.3c0.4-0.5,0.4-0.5,0.9,0c0.3,0.3,0.7,0.7,1,1c0.1,0.1,0.3,0.3,0.5,0.3
			c0.2,0.1,0.5,0,0.6-0.1c0.2-0.2,0.2-0.4,0.1-0.7c-0.1-0.2-0.2-0.4-0.4-0.5c-0.4-0.4-0.8-0.8-1.2-1.2c-0.1-0.1-0.1-0.2,0-0.3
			c0.4-0.4,0.4-0.4,0.8,0s0.7,0.7,1.1,1.1C38.8,36.3,39,36.7,39,37.1z"/>
		<path id="Path_362" class="st5" d="M32.8,63.3c0-0.1,0-0.1-0.1-0.2c-0.1-0.4-0.1-0.4-0.6-0.4c-0.1,0-0.2,0-0.3,0
			c-0.1,0-0.2,0-0.2-0.1l0,0c-0.1-0.2-0.1-0.4-0.2-0.6c-0.1-0.1,0-0.2,0.1-0.3c0.2-0.1,0.3-0.2,0.5-0.3c0.1-0.1,0.1-0.1,0.1-0.2
			C32,61,32,60.8,31.9,60.5c-1,0.7-2,1.3-3,1.9c-0.1,0.1-0.1,0.1-0.1,0.2c0.1,0.2,0.2,0.5,0.2,0.7s0.1,0.2,0.2,0.2
			c0.3,0,0.6,0,0.9,0h2.4C32.8,63.4,32.9,63.4,32.8,63.3z M29.7,62.7l1.2-0.8c0.1,0.2,0.1,0.5,0.2,0.7
			C30.7,62.7,30.2,62.7,29.7,62.7L29.7,62.7z"/>
		<path id="Path_363" class="st5" d="M78.3,70.2c-0.6-0.8-1.2-1.6-1.8-2.3c-0.1,0.2-0.2,0.3-0.3,0.5s-0.1,0.2,0,0.4
			c0.2,0.2,0.4,0.3,0.4,0.5s-0.2,0.4-0.4,0.6c-0.1,0.2-0.2,0.2-0.5,0.2c-0.6-0.2-0.6-0.2-0.9,0.3c-0.1,0.2-0.1,0.2,0.1,0.3
			c1,0.3,1.9,0.6,2.9,1c0.2,0.1,0.4,0.1,0.5-0.2c0.1-0.2,0.4-0.4,0.4-0.6C78.6,70.6,78.4,70.4,78.3,70.2z M77.8,70.8l-1.2-0.5
			c0.1-0.2,0.2-0.3,0.4-0.5c0.1-0.1,0.1-0.1,0.2,0C77.3,70.1,77.6,70.4,77.8,70.8L77.8,70.8z"/>
		<path id="Path_364" class="st5" d="M83.2,59.1c-0.2-0.1-0.4-0.2-0.7-0.3L80,57.6c0,0.2-0.1,0.3-0.1,0.5c-0.1,0.2,0,0.3,0.2,0.4
			c0.6,0.2,0.6,0.2,0.5,0.9c0,0.3-0.1,0.4-0.4,0.4c-0.6,0-0.6,0.1-0.7,0.7c0,0.1,0,0.2,0.2,0.2c1-0.2,2.1-0.3,3.1-0.4
			c0.2,0,0.3-0.1,0.3-0.3c0-0.2,0.1-0.4,0.1-0.6C83.4,59.2,83.3,59.1,83.2,59.1C83.3,59.1,83.3,59.1,83.2,59.1z M81.4,59.7
			c-0.1,0-0.1,0-0.1-0.1c0-0.2,0.1-0.4,0.1-0.6l1.3,0.6C82.2,59.6,81.8,59.6,81.4,59.7L81.4,59.7z"/>
		<path id="Path_365" class="st5" d="M60.6,28.4c-0.4,0-0.7-0.1-1-0.1c-0.2,0-0.2,0-0.2,0.2c-0.1,0.5-0.1,0.5,0.4,0.6
			c0.2,0,0.3,0,0.5,0.1c0.1,0,0.3,0,0.3,0.1c0,0.2,0,0.4-0.1,0.5c0,0.1-0.1,0-0.2,0c-0.3,0-0.6-0.1-0.9-0.1c-0.1,0-0.2,0-0.2,0.1
			c-0.1,0.7-0.1,0.7,0.5,0.8c0.2,0,0.5,0.1,0.7,0.1c0.1,0,0.1,0,0.1,0.1c0,0.2,0,0.3-0.1,0.5c0,0.1-0.1,0.1-0.2,0.1
			c-0.6-0.1-1.3-0.2-1.9-0.3c-0.1,0-0.1-0.1-0.1-0.2c0.1-0.9,0.3-1.9,0.4-2.8c0.1-0.5,0.1-0.5,0.5-0.4c0.5,0.1,1,0.1,1.5,0.2
			c0.1,0,0.2,0.1,0.2,0.2c0,0.1,0,0.1,0,0.2C60.9,28.4,60.8,28.5,60.6,28.4z"/>
		<path id="Path_366" class="st5" d="M43,30.4c0.1,0,0.1,0.1,0.2,0.2c0.2,0.4,0.2,0.4-0.1,0.6c-0.2,0.1-0.5,0.3-0.7,0.4
			c-0.1,0-0.1,0.1-0.1,0.2c0.3,0.5,0.3,0.5,0.8,0.2c0.1,0,0.2-0.1,0.2-0.1c0.4-0.2,0.4-0.2,0.6,0.2c0.1,0.1,0.1,0.2-0.1,0.2
			c-0.3,0.2-0.6,0.3-0.8,0.5c-0.1,0.1-0.1,0.1-0.1,0.2c0.1,0.2,0.2,0.5,0.3,0.5s0.4-0.2,0.5-0.3s0.4-0.2,0.6-0.3c0.1,0,0.1,0,0.2,0
			c0.3,0.4,0.3,0.4-0.2,0.7l-1.2,0.7c-0.3,0.2-0.3,0.2-0.4-0.1c-0.3-0.5-0.5-1-0.8-1.4c-0.2-0.4-0.5-0.8-0.7-1.2
			c-0.1-0.1-0.1-0.2,0-0.2C41.8,31.1,42.3,30.8,43,30.4L43,30.4z"/>
		<path id="Path_367" class="st5" d="M32.6,47.5c0,0.4-0.2,0.9-0.5,1.2c-0.1,0.1-0.2,0.1-0.3,0c-0.1-0.1-0.3-0.1-0.3-0.2
			s0.1-0.2,0.2-0.3c0.1-0.2,0.2-0.4,0.2-0.6s0-0.3-0.2-0.4c-0.1-0.1-0.3,0-0.4,0.1c-0.2,0.2-0.3,0.3-0.4,0.5
			c-0.2,0.3-0.7,0.5-1.2,0.3s-0.8-0.8-0.6-1.3c0.1-0.3,0.2-0.6,0.4-0.9c0.1-0.1,0.1-0.1,0.2,0s0.3,0.2,0.4,0.3
			c0.1,0.1-0.1,0.2-0.2,0.4c-0.1,0.2-0.1,0.3-0.2,0.5c0,0.1,0,0.3,0.2,0.3c0.1,0.1,0.3,0,0.4-0.1c0.2-0.2,0.3-0.4,0.5-0.5
			c0.2-0.3,0.6-0.5,0.9-0.4C32.3,46.4,32.7,46.8,32.6,47.5z"/>
		<path id="Path_368" class="st5" d="M74.7,71.6c-0.2,0.1-0.4,0.2-0.6,0.4c-0.1,0.1-0.2,0.2-0.3,0.3c-0.1,0.1-0.1,0.3,0,0.4
			c0.1,0.1,0.3,0.2,0.4,0.1c0.1,0,0.2-0.1,0.4-0.1c0.2-0.1,0.3-0.2,0.5-0.2c0.3-0.1,0.7,0,1,0.3c0.2,0.3,0.3,0.7,0.2,1
			c-0.2,0.5-0.6,0.9-1,1.1c-0.1,0.1-0.1,0-0.2-0.1c-0.1-0.1-0.2-0.3-0.2-0.4c0-0.2,0.2-0.2,0.3-0.3c0.1-0.1,0.3-0.2,0.4-0.4
			c0.1-0.1,0.1-0.3,0-0.4s-0.2-0.1-0.4-0.1c-0.2,0.1-0.5,0.2-0.8,0.3c-0.3,0.2-0.7,0.1-1-0.1c-0.4-0.3-0.5-0.7-0.3-1.1
			c0.2-0.5,0.6-1,1.1-1.2c0.1,0,0.1,0,0.2,0l0,0C74.5,71.3,74.6,71.5,74.7,71.6z"/>
		<path id="Path_369" class="st5" d="M64.4,29.4c-0.3-0.2-0.7-0.3-1-0.3c-0.2,0-0.3,0-0.4,0.1c-0.4,0.3-0.6,0.8-0.6,1.3
			c0.1,0.5,0.4,0.8,0.8,0.9c0.1,0,0.3,0.1,0.4,0.1c0.2,0,0.2,0.1,0.2,0.2c0,0.4,0,0.4-0.5,0.4c-0.2,0-0.5-0.1-0.7-0.2
			c-0.7-0.2-1.1-0.8-1.1-1.5c0-0.8,0.4-1.5,1.1-1.8c0.7-0.2,1.4-0.2,2,0.2c0.1,0.1,0.1,0.1,0,0.2C64.6,29.1,64.5,29.3,64.4,29.4z"/>
		<path id="Path_370" class="st5" d="M50.8,31.3C50.7,31.3,50.7,31.2,50.8,31.3c-0.3-1.1-0.4-2-0.6-3c-0.1-0.4-0.1-0.4,0.3-0.4
			c0.5-0.1,1-0.2,1.5-0.3c0.1,0,0.2,0,0.2,0.1c0.1,0.5,0.1,0.5-0.4,0.5c-0.2,0-0.5,0.1-0.7,0.1s-0.2,0.1-0.1,0.2
			c0,0.1,0.1,0.3,0.1,0.4c0,0.2,0.1,0.2,0.3,0.2C51.7,29,52,29,52.3,29c0.1,0,0.2,0,0.2,0.1c0.1,0.5,0.1,0.5-0.4,0.6
			c-0.2,0-0.4,0.1-0.5,0.1c-0.2,0-0.2,0.1-0.2,0.3c0.1,0.3,0.1,0.6,0.2,1c0,0.1,0,0.2-0.2,0.2C51.1,31.3,51,31.3,50.8,31.3z"/>
		<path id="Path_371" class="st5" d="M81.5,49.1l1.4,0.2c0.1,0,0.1,0,0.2,0.1c0.1,0.2,0.1,0.5,0.2,0.8c-0.5-0.1-0.9-0.2-1.4-0.4
			c-0.6-0.2-1.2-0.2-1.8,0c-0.5,0.2-0.5,0.1-0.6-0.4c-0.1-0.2,0-0.3,0.2-0.3h0.1c0.7-0.1,1.4-0.4,1.9-1c0.3-0.3,0.6-0.5,0.9-0.8
			c0.1,0.2,0.1,0.5,0.2,0.7c0.1,0.1,0,0.3-0.1,0.3C82.3,48.6,81.9,48.9,81.5,49.1z"/>
		<path id="Path_372" class="st5" d="M36.4,40.4c-0.1,0.2-0.3,0.4-0.4,0.6c0,0-0.1,0-0.1-0.1c-0.7-0.4-1.3-0.9-2-1.4
			c-0.2-0.1-0.3-0.1-0.3,0.1c0,0.1-0.1,0.1-0.1,0.2c-0.1,0.1-0.2,0.3-0.3,0.3c-0.2-0.1-0.3-0.2-0.5-0.3c-0.1,0,0-0.1,0-0.1
			c0.5-0.7,1-1.3,1.4-2c0.1-0.1,0.1-0.1,0.2,0s0.2,0.2,0.3,0.2c0.1,0.1,0.1,0.1,0,0.2c-0.1,0.2-0.2,0.3-0.4,0.5
			c-0.1,0.1-0.1,0.2,0,0.3c0.7,0.5,1.3,1,2,1.5C36.4,40.3,36.4,40.3,36.4,40.4z"/>
		<path id="Path_373" class="st5" d="M55.8,29.4c0-0.4,0-0.8,0-1.2c0-0.1,0-0.2-0.2-0.2s-0.4,0-0.6,0c-0.1,0-0.2,0-0.1-0.1l0,0
			c0-0.5,0-0.5,0.5-0.5c0.7,0,1.3,0,2,0c0.2,0,0.2,0,0.2,0.2c0,0.5,0,0.5-0.5,0.5s-0.5,0-0.5,0.5c0,0.7,0,1.4,0,2.1
			c0,0.1,0,0.2-0.2,0.2c-0.6,0-0.6,0-0.6-0.6C55.8,30,55.8,29.7,55.8,29.4L55.8,29.4z"/>
		<path id="Path_374" class="st5" d="M30.5,44.9c-0.2-0.1-0.3-0.2-0.5-0.2c-0.1,0,0-0.1,0-0.2c0.3-0.7,0.7-1.5,1-2.2
			c0-0.1,0.1-0.1,0.2-0.1c0.5,0.2,0.5,0.2,0.3,0.7c-0.2,0.4-0.2,0.4,0.2,0.6c0.7,0.3,1.3,0.6,2,0.9c0.1,0.1,0.2,0.1,0.1,0.2
			c-0.1,0.2-0.1,0.4-0.3,0.5S33.2,45,33,44.9c-0.6-0.3-1.2-0.6-1.9-0.9c-0.1-0.1-0.2,0-0.2,0.1c-0.1,0.2-0.2,0.4-0.2,0.6
			C30.6,44.8,30.6,44.9,30.5,44.9z"/>
		<path id="Path_375" class="st5" d="M40.8,35.9c0,0-0.1-0.1-0.1-0.2l-1.4-1.8c-0.2-0.3-0.2-0.3-0.4-0.1c-0.1,0.1-0.3,0.2-0.4,0.3
			s-0.1,0.1-0.2,0c-0.3-0.4-0.3-0.4,0.1-0.7c0.5-0.4,1.1-0.8,1.6-1.2c0.1-0.1,0.2-0.1,0.2,0c0.3,0.4,0.3,0.4-0.1,0.7
			s-0.4,0.3-0.1,0.7c0.4,0.6,0.9,1.2,1.3,1.7c0.1,0.1,0.1,0.2,0,0.3S41.1,35.8,40.8,35.9C40.9,35.9,40.9,35.9,40.8,35.9z"/>
		<path id="Path_376" class="st5" d="M76.9,37C76.9,37,77,37,76.9,37c0.2,0.2,0.4,0.4,0.5,0.5s0,0.1-0.1,0.2c-0.6,0.5-1.3,1-1.9,1.5
			c-0.1,0.1-0.1,0.2,0,0.3c0.2,0.3,0.4,0.5,0.6,0.8c0.1,0.1,0.1,0.1,0,0.2c-0.4,0.3-0.4,0.3-0.7-0.1c-0.3-0.4-0.6-0.8-0.9-1.2
			c-0.1-0.1-0.1-0.1,0-0.2C75.1,38.4,76,37.7,76.9,37C76.8,37,76.9,37,76.9,37z"/>
		<path id="Path_377" class="st5" d="M28.1,54.3c-0.1,0-0.2-0.1-0.2-0.2c0-0.6,0-0.6,0.6-0.6c0.9,0.1,1.8,0.1,2.8,0.1
			c0.2,0,0.2,0,0.2,0.2c0,0.1,0,0.2,0,0.2c0,0.4,0,0.4-0.4,0.3c-0.5,0-0.9,0-1.4-0.1L28.1,54.3z"/>
		<path id="Path_378" class="st5" d="M35,42.4c-0.1,0.2-0.2,0.4-0.4,0.6c0,0.1-0.1,0-0.1,0c-0.9-0.5-1.8-1.1-2.8-1.6
			c-0.1,0-0.1-0.1-0.1-0.2l0,0c0.3-0.5,0.3-0.5,0.8-0.2c0.8,0.5,1.5,0.9,2.3,1.4C34.9,42.3,35,42.3,35,42.4z"/>
		<path id="Path_379" class="st5" d="M33.5,64.8C33.5,64.9,33.4,64.9,33.5,64.8c-1.1,0.5-2.1,0.9-3,1.3c-0.1,0-0.2,0-0.2-0.1
			c-0.3-0.6-0.3-0.6,0.3-0.8c0.8-0.3,1.7-0.7,2.5-1.1c0.2-0.1,0.2,0,0.3,0.1C33.3,64.4,33.4,64.6,33.5,64.8z"/>
		<path id="Path_380" class="st5" d="M39.1,72.6C39.1,72.7,39,72.7,39.1,72.6c-0.8,0.9-1.6,1.6-2.3,2.4c-0.1,0.1-0.2,0.1-0.2,0
			c-0.1-0.2-0.4-0.3-0.4-0.4s0.2-0.3,0.4-0.4c0.6-0.6,1.3-1.3,1.9-1.9c0.1-0.1,0.2-0.1,0.3,0C38.9,72.4,39,72.5,39.1,72.6
			C39,72.5,39,72.5,39.1,72.6z"/>
		<path id="Path_381" class="st5" d="M39.8,76.3c-0.3,0-0.5-0.2-0.5-0.5l0,0c0-0.3,0.2-0.5,0.5-0.5l0,0c0.3,0,0.5,0.2,0.5,0.5
			S40.1,76.3,39.8,76.3z"/>
		<path id="Path_382" class="st5" d="M71.8,76.3c-0.3,0-0.5-0.2-0.5-0.5l0,0c0-0.3,0.2-0.5,0.5-0.5s0.5,0.2,0.5,0.5
			S72.1,76.3,71.8,76.3L71.8,76.3z"/>
		<path id="Path_383" class="st6" d="M64.3,76.9c0.2,0,0.3,0.1,0.5,0.2l0.1,0.1h-0.1c-0.3-0.1-0.5,0-0.6,0.3s0,0.5,0.3,0.7
			c0.1,0,0.2,0,0.1,0.2s-0.2,0-0.2,0c-0.2-0.1-0.3-0.2-0.5-0.4c-0.2-0.2-0.2-0.4-0.1-0.7C63.8,77,64.1,76.9,64.3,76.9z"/>
		<path id="Path_384" class="st6" d="M51.7,78.8c0-0.3,0.2-0.6,0.5-0.6l0,0c0.3,0,0.7,0.2,0.8,0.5v0.1c0,0.1-0.1,0-0.1,0
			c-0.1-0.1-0.3-0.2-0.4-0.2c-0.3,0-0.5,0.3-0.4,0.6c0,0.1,0,0.1,0,0.2s0.1,0.1,0.1,0.2s0,0.1,0,0.1s-0.1,0-0.1-0.1
			C51.8,79.3,51.7,79,51.7,78.8z"/>
		<path id="Path_385" class="st7" d="M62.1,82.2c0.1,0,0-0.1,0.1-0.2C62.2,82,62.2,82.1,62.1,82.2L62.1,82.2z"/>
		<path id="Path_386" class="st8" d="M78.3,54.9c0,3.2-0.6,6.3-1.9,9.2c-0.8,1.9-2,3.7-3.3,5.3c-3.2,3.8-7.6,6.4-12.5,7.4
			c-6.5,1.4-13.2-0.1-18.5-4.2c-2.7-2.1-4.9-4.7-6.4-7.7c-1.2-2.3-2-4.8-2.2-7.4c-0.5-4.2,0.2-8.4,2-12.2c1.4-3,3.6-5.7,6.2-7.8
			c1.8-1.5,3.9-2.7,6.2-3.5c4-1.5,8.4-1.8,12.5-1c4.8,1,9.1,3.5,12.3,7.1c2.8,3.1,4.6,6.8,5.3,10.9C78.2,52.4,78.3,53.7,78.3,54.9z"
			/>
		<path id="Path_387" class="st9" d="M60.5,80.9c0,0.1,0,0.2,0,0.2C60.4,81.1,60.4,81,60.5,80.9z"/>
		<path id="Path_388" class="st5" d="M60.5,80.9c0,0.1,0,0.2,0,0.2C60.3,81.1,60.3,81,60.5,80.9z"/>
		<path id="Path_389" class="st10" d="M55.9,68.9c-2.7,0-5.3-0.4-7.8-1.4c-2.4-0.9-4.5-2.3-6.3-4.2c-1.2-1.3-2.1-2.8-2.6-4.5
			c-0.1-0.3,0-0.7,0.3-1s0.6-0.5,1-0.6c1.2-0.5,2.4-0.8,3.6-1.1c2.1-0.4,4.2-0.7,6.3-0.8c0.2,0,0.2-0.1,0.1-0.2
			c-0.5-1.1-0.8-2.3-0.9-3.5c-0.2-1.9,0-3.8,0.6-5.6c0.5-1.7,1.3-3.4,2.3-4.8c0.5-0.8,1-1.6,1.5-2.4c0.7-1.1,1.2-2.3,1.4-3.6
			c0-0.2,0.1-0.2,0.2-0.2c0.4,0,0.4,0,0.4,0.4c0.3,1.4,0.8,2.7,1.6,3.9c0.6,1,1.3,2,1.9,3c0.3,0.4,0.5,0.9,0.7,1.3
			c0.8,1.4,1.3,3,1.5,4.6c0.4,2.3,0.1,4.7-0.8,6.9c-0.1,0.3-0.1,0.3,0.2,0.3c2.6,0.2,5.3,0.6,7.8,1.2c0.8,0.2,1.5,0.5,2.2,0.8
			c0.4,0.2,0.8,0.5,0.9,1c0,0.1,0,0.2,0,0.3c-0.6,2.1-1.8,4.1-3.4,5.6c-0.6,0.6-1.3,1.1-2,1.6c-2.2,1.4-4.5,2.3-7,2.7
			c-0.4,0.1-0.8,0.1-1.3,0.2C57.6,68.9,56.8,69,55.9,68.9z"/>
		<path id="Path_390" class="st5" d="M43.8,69c0.8,0.1,1.6,0.3,2.4,0.4c1.7,0.3,3.4,0.6,5.1,0.9c0.1,0,0.2,0,0.3,0.1l-0.9,1l8.1,0.7
			L58,72.8l7.7,0.3v0.1l-10.3,1l1.3-1.2l-8.4-0.8l1.4-1L43.8,69L43.8,69L43.8,69z"/>
		<path id="Path_391" class="st11" d="M43.8,69L43.8,69h-0.2C43.6,68.9,43.7,68.9,43.8,69z"/>
		<path id="Path_392" class="st0" d="M40.3,59.7c1,0.3,2.1,0.6,3.1,0.8c0.9,0.2,1.8,0.3,2.7,0.4c1.1,0.1,2.2,0.2,3.3,0.2
			c1.5,0,2.9-0.3,4.3-0.6c0.7-0.2,1.3-0.3,1.9-0.6c0.1,0,0.2,0,0.3,0c1.3,0.5,2.6,0.8,3.9,1c0.6,0.1,1.2,0.1,1.8,0.2
			c0.7,0.1,1.4,0,2.1,0c0.9-0.1,1.8-0.2,2.6-0.3c1.2-0.2,2.4-0.4,3.6-0.7c0.4-0.1,0.7-0.2,1.1-0.4c-0.1,0.4-0.3,0.8-0.5,1.1
			c-1,1.8-2.4,3.3-4.1,4.4c-2,1.4-4.3,2.3-6.7,2.8c-1.1,0.2-2.2,0.3-3.3,0.4c-1.3,0.1-2.5,0-3.8-0.2c-1.8-0.2-3.6-0.7-5.3-1.4
			c-1.5-0.6-2.9-1.4-4.1-2.5c-0.7-0.6-1.3-1.2-1.9-1.9C41.2,61.6,40.7,60.7,40.3,59.7C40.3,59.8,40.3,59.7,40.3,59.7z"/>
		<path id="Path_393" class="st5" d="M58.4,50.7c0.3-0.6,0.4-1.3,0.3-2c0-0.5-0.2-1.1-0.2-1.6c-0.1-0.8-0.2-1.6-0.1-2.4
			c0-0.1,0-0.2,0-0.2c0.1-0.1,0-0.3-0.1-0.4c-0.1-0.1-0.3-0.1-0.4,0c-0.2,0.1-0.3,0.3-0.5,0.4l-0.5-1.2l-0.7,1
			c-0.2-0.1-0.2-0.4-0.4-0.4c-0.2,0-0.3,0.2-0.4,0.3l-0.7-0.9c-0.2,0.4-0.4,0.8-0.6,1.2c-0.2-0.1-0.3-0.3-0.5-0.4
			c-0.1-0.1-0.3-0.2-0.4-0.1c-0.2,0.1-0.2,0.2-0.1,0.4c0.1,0.4,0.1,0.9,0,1.3c0,0.8-0.1,1.5-0.3,2.2c-0.2,0.9-0.1,1.9,0.2,2.7
			c-0.4,0-0.8,0.1-1.1,0.2c-0.2,0.1-0.3,0.2-0.3,0.3c0,0.2,0.1,0.2,0.3,0.3c0.2,0,0.3,0.2,0.4,0.4c0.1,0.1,0,0.1-0.1,0.2
			c-0.2,0.1-0.3,0.2-0.5,0.3c-0.2,0.2-0.2,0.4,0,0.5c0.2,0.2,0.5,0.3,0.7,0.5c0.4,0.4,1,0.6,1.5,0.6c0.1,0,0.2,0,0.2,0.1
			c0.1,0.5,0.4,0.9,0.8,1.3c0.1,0.1,0.2,0.2,0.2,0.3c0,1.2,0,2.3,0,3.5c0,0.2,0,0.2-0.2,0.3c-0.3,0.1-0.5,0.2-0.8,0.2
			c-0.1,0-0.2,0.1-0.3-0.1c-1.2-1.5-2.1-3.1-2.9-4.8c-1.2-3-1.2-6.4,0-9.5c0.5-1.4,1.2-2.7,2-3.9c0.3-0.5,0.6-0.9,0.9-1.4
			c0.8-1.1,1.4-2.3,1.8-3.5c0.1,0.2,0.1,0.3,0.2,0.5c0.4,1.1,1,2.2,1.7,3.2c0.8,1.2,1.6,2.4,2.2,3.7c0.7,1.4,1.1,2.8,1.4,4.3
			c0.3,2.2,0.1,4.4-0.8,6.4c-0.8,1.7-1.7,3.3-2.9,4.8c-0.1,0.1-0.2,0.1-0.3,0.1c-0.2-0.1-0.5-0.2-0.8-0.2c-0.1,0-0.2-0.1-0.2-0.2
			c0-1.2,0-2.4,0-3.6c0-0.1,0-0.2,0.1-0.3c0.4-0.3,0.7-0.8,0.9-1.3c0-0.1,0.1-0.1,0.2-0.1c0.5,0,1-0.2,1.4-0.5
			c0.2-0.2,0.5-0.4,0.8-0.5c0.1-0.1,0.2-0.2,0.1-0.4l-0.1-0.1c-0.2-0.1-0.4-0.3-0.5-0.4s-0.1-0.1-0.1-0.2c0.1-0.2,0.2-0.3,0.5-0.3
			c0.2,0,0.3-0.1,0.3-0.3c0-0.1-0.1-0.3-0.2-0.3C59.2,50.7,58.8,50.7,58.4,50.7z"/>
		<path id="Path_394" class="st5" d="M58.1,59.9c0.5-0.7,1-1.4,1.5-2.1c0.2-0.3,0.4-0.7,0.6-1.1c0.2-0.2,0.3-0.4,0.4-0.7
			c0-0.1,0.2-0.1,0.2-0.1c0.9,0.1,1.9,0.2,2.8,0.3c1.8,0.2,3.6,0.5,5.3,1c0.7,0.2,1.3,0.4,1.9,0.7c0.2,0.1,0.4,0.2,0.5,0.3
			c0.4,0.3,0.4,0.5,0,0.7c-0.2,0.1-0.4,0.2-0.6,0.3c-1,0.3-2,0.6-3.1,0.7c-1.4,0.2-2.8,0.4-4.2,0.5c-1,0-2,0-2.9-0.1
			c-0.7-0.1-1.5-0.2-2.2-0.4C58.3,59.9,58.2,59.9,58.1,59.9z"/>
		<path id="Path_395" class="st5" d="M48.7,60.4c-1.2,0-2.4-0.1-3.5-0.3c-1.3-0.2-2.7-0.4-3.9-0.8c-0.4-0.1-0.7-0.2-1.1-0.4
			c-0.3-0.2-0.3-0.4,0-0.6c0.5-0.3,1-0.6,1.6-0.8c1.5-0.5,3.1-0.8,4.7-1c1.4-0.2,2.9-0.4,4.3-0.5c0.1,0,0.2,0,0.3,0.1
			c0.7,1.3,1.4,2.5,2.3,3.6c0.1,0.2,0.1,0.2-0.1,0.2C51.7,60.3,50.2,60.4,48.7,60.4z"/>
		<path id="Path_396" class="st12" d="M55.8,44.7c0.7,1.1,1.1,2.4,1.4,3.7c0.2,0.8,0.1,1.5-0.1,2.2c-0.2,0.5-0.4,0.9-0.8,1.2
			c-0.3,0.2-0.7,0.2-0.9,0c-0.5-0.5-0.9-1.2-1-1.9c-0.1-1.4,0.2-2.9,0.9-4.2C55.4,45.4,55.6,45.1,55.8,44.7z"/>
		<path id="Path_397" class="st12" d="M55.9,52.6c0.6,0,1,0.5,1,1.1c0,0.2-0.1,0.3-0.1,0.5c-0.2,0.3-0.5,0.6-0.8,0.9
			c-0.1,0.1-0.1,0-0.2,0c-0.2-0.2-0.5-0.5-0.7-0.7c-0.4-0.5-0.2-1.2,0.3-1.6c0,0,0,0,0.1,0C55.6,52.7,55.7,52.6,55.9,52.6z"/>
		<path id="Path_398" class="st12" d="M57.8,45c0,1.3,0.1,2.6,0.3,3.8c0.1,0.6-0.1,1.3-0.4,1.8c0-0.2,0.1-0.4,0.1-0.6
			c0.1-1.2-0.1-2.4-0.6-3.6c0-0.1-0.1-0.2-0.1-0.2c-0.2-0.5-0.2-0.5,0.2-0.9C57.5,45.2,57.6,45.1,57.8,45z"/>
		<path id="Path_399" class="st12" d="M53.7,50.5c-0.2-0.4-0.3-0.8-0.3-1.3c0-0.6,0.1-1.1,0.2-1.7c0.1-0.8,0.2-1.6,0.2-2.4
			c0-0.1,0-0.1,0-0.2c0.3,0.2,0.5,0.4,0.7,0.6c0.1,0.1,0.1,0.2,0,0.3c-0.3,0.6-0.5,1.3-0.7,2c-0.2,0.8-0.2,1.7-0.1,2.5
			C53.8,50.4,53.8,50.5,53.7,50.5z"/>
		<path id="Path_400" class="st12" d="M52.6,52.6c0.6-0.4,1.3-0.5,2-0.2c0.1,0,0.2,0.1,0.1,0.2c-0.2,0.2-0.3,0.4-0.3,0.6
			s-0.1,0.2-0.3,0.2c-0.4,0-0.8-0.2-1.1-0.5L52.6,52.6z"/>
		<path id="Path_401" class="st12" d="M56.9,52.4c0.6-0.2,1.4-0.2,2,0.2c0.1,0,0.1,0.1,0,0.1c-0.3,0.4-0.8,0.6-1.3,0.7
			c-0.1,0-0.2,0-0.2-0.1C57.3,52.9,57.1,52.6,56.9,52.4z"/>
		<path id="Path_402" class="st13" d="M52.8,51.3c0.3-0.2,0.7,0,0.9,0.3c-0.1,0-0.2,0-0.3,0C53,51.7,53,51.7,52.8,51.3z"/>
		<path id="Path_403" class="st13" d="M57.8,51.6c0.2-0.4,0.6-0.3,0.9-0.3C58.5,51.8,58.5,51.8,57.8,51.6z"/>
		<path id="Path_404" class="st14" d="M56.8,44.4c0.1,0.2,0.3,0.3,0.1,0.5c-0.1,0-0.1,0.2-0.2,0.1c-0.1-0.1-0.2-0.2-0.1-0.3
			C56.6,44.7,56.7,44.6,56.8,44.4z"/>
		<path id="Path_405" class="st14" d="M55,44.8c0,0.1-0.1,0.2-0.2,0.3c0,0-0.1-0.1-0.2-0.1c-0.1-0.1,0-0.2,0-0.2s0-0.2,0.1-0.2
			C55,44.6,55,44.7,55,44.8z"/>
	</g>
	<g class="st15">
		<path class="st16" d="M66.5,25.4v-1.7h5.9v1.7l-1.5,0.3v10.2l1.5,0.3v1.7h-5.9v-1.7l1.5-0.3V25.7L66.5,25.4z"/>
		<path class="st16" d="M73.5,25.4v-1.7h5.9v1.7l-1.5,0.3v10.2l1.5,0.3v1.7h-5.9v-1.7l1.5-0.3V25.7L73.5,25.4z"/>
		<path class="st16" d="M93,23.7v3.8h-2.2l-0.1-1.6h-2.6v10l1.5,0.3v1.7h-5.9v-1.7l1.5-0.3v-10h-2.6l-0.1,1.6h-2.2v-3.8H93z"/>
		<path class="st16" d="M112.6,27.4L112.6,27.4l-3.9,10.5h-1.9L103,27.4h-0.1l0.3,6.2v2.2l1.5,0.3v1.7h-5.9v-1.7l1.5-0.3V25.7
			l-1.5-0.3v-1.7h1.5h3.7l3.6,10.5h0.1l3.7-10.5h5.2v1.7l-1.5,0.3v10.2l1.5,0.3v1.7h-5.9v-1.7l1.5-0.3v-2.2L112.6,27.4z"/>
		<path class="st16" d="M124.5,37.9c-0.1-0.2-0.2-0.4-0.2-0.5s-0.1-0.4-0.1-0.6c-0.3,0.4-0.8,0.7-1.2,1c-0.5,0.2-1,0.4-1.7,0.4
			c-1,0-1.9-0.3-2.5-0.8c-0.6-0.6-0.9-1.3-0.9-2.3s0.4-1.8,1.2-2.3s2-0.8,3.5-0.8h1.5v-1c0-0.5-0.1-0.9-0.4-1.2
			c-0.3-0.3-0.7-0.4-1.3-0.4c-0.3,0-0.6,0-0.9,0.1s-0.5,0.2-0.6,0.3l-0.2,1.1h-2.1v-2.3c0.5-0.3,1.1-0.6,1.8-0.9
			c0.7-0.2,1.4-0.4,2.2-0.4c1.3,0,2.4,0.3,3.2,1c0.8,0.6,1.2,1.5,1.2,2.7v4.4c0,0.2,0,0.3,0,0.5s0,0.3,0,0.4l0.9,0.1v1.7L124.5,37.9
			L124.5,37.9z M122,36c0.4,0,0.8-0.1,1.2-0.3c0.3-0.2,0.6-0.4,0.8-0.7v-1.6h-1.5c-0.6,0-1.1,0.1-1.4,0.4c-0.3,0.3-0.5,0.6-0.5,1
			s0.1,0.6,0.4,0.8C121.3,35.9,121.6,36,122,36z"/>
		<path class="st16" d="M135.6,36.6c-0.3,0.5-0.7,0.9-1.2,1.1c-0.4,0.2-1,0.4-1.6,0.4c-1.3,0-2.3-0.5-3-1.4s-1.1-2.2-1.1-3.8v-0.2
			c0-1.7,0.4-3,1.1-4s1.7-1.5,3.1-1.5c0.5,0,1,0.1,1.4,0.4c0.4,0.2,0.8,0.6,1.1,1v-3.8l-1.5-0.3v-1.7h1.5h2.9V36l1.4,0.3V38h-3.8
			L135.6,36.6z M131.6,32.9c0,0.9,0.1,1.6,0.5,2.2c0.3,0.5,0.8,0.8,1.5,0.8c0.4,0,0.8-0.1,1.1-0.2c0.3-0.2,0.6-0.4,0.8-0.7v-4.5
			c-0.2-0.3-0.4-0.6-0.8-0.8c-0.3-0.2-0.7-0.3-1.1-0.3c-0.7,0-1.2,0.3-1.5,0.9c-0.3,0.6-0.5,1.4-0.5,2.4V32.9L131.6,32.9z"/>
		<path class="st16" d="M140.8,36.2l1.4-0.3v-6.6l-1.5-0.3v-1.7h4.2l0.1,1.5c0.2-0.5,0.6-1,1-1.3s0.8-0.5,1.4-0.5c0.1,0,0.3,0,0.5,0
			s0.3,0,0.4,0.1l-0.3,2.6h-1.2c-0.4,0-0.8,0.1-1,0.2s-0.5,0.4-0.6,0.7v5.1l1.4,0.3v1.7H141L140.8,36.2L140.8,36.2z"/>
		<path class="st16" d="M155.5,37.9c-0.1-0.2-0.1-0.4-0.2-0.5s-0.1-0.4-0.1-0.6c-0.3,0.4-0.8,0.7-1.2,1c-0.5,0.2-1,0.4-1.7,0.4
			c-1,0-1.9-0.3-2.5-0.8c-0.6-0.6-0.9-1.3-0.9-2.3s0.4-1.8,1.2-2.3s2-0.8,3.5-0.8h1.5v-1c0-0.5-0.1-0.9-0.4-1.2
			c-0.3-0.3-0.7-0.4-1.3-0.4c-0.3,0-0.6,0-0.9,0.1s-0.5,0.2-0.6,0.3l-0.2,1.1h-2.1v-2.3c0.5-0.3,1.1-0.6,1.8-0.9
			c0.7-0.2,1.4-0.4,2.2-0.4c1.3,0,2.4,0.3,3.2,1s1.2,1.5,1.2,2.7v4.4c0,0.2,0,0.3,0,0.5s0,0.3,0,0.4l0.9,0.1v1.7L155.5,37.9
			L155.5,37.9z M153,36c0.4,0,0.8-0.1,1.2-0.3c0.3-0.2,0.6-0.4,0.8-0.7v-1.6h-1.5c-0.6,0-1.1,0.1-1.4,0.4c-0.3,0.3-0.5,0.6-0.5,1
			s0.1,0.6,0.4,0.8C152.3,35.9,152.6,36,153,36z"/>
		<path class="st16" d="M168.4,31h-1.9l-0.3-1.3c-0.2-0.2-0.4-0.3-0.7-0.4c-0.3-0.1-0.6-0.2-1-0.2c-0.5,0-0.9,0.1-1.2,0.3
			s-0.4,0.5-0.4,0.8s0.1,0.6,0.4,0.8c0.3,0.2,0.8,0.4,1.7,0.6c1.3,0.3,2.3,0.6,2.9,1.2c0.6,0.5,0.9,1.2,0.9,2.1c0,1-0.4,1.7-1.2,2.3
			s-1.9,0.9-3.2,0.9c-0.8,0-1.6-0.1-2.2-0.4c-0.7-0.2-1.3-0.6-1.8-1v-2.4h2l0.4,1.4c0.2,0.1,0.4,0.2,0.7,0.3s0.6,0.1,0.9,0.1
			c0.6,0,1-0.1,1.3-0.3s0.4-0.5,0.4-0.9c0-0.3-0.1-0.6-0.5-0.8c-0.3-0.2-0.9-0.4-1.7-0.6c-1.2-0.2-2.2-0.6-2.8-1.1
			c-0.6-0.5-0.9-1.2-0.9-2c0-0.9,0.4-1.6,1.1-2.3c0.7-0.6,1.8-1,3.1-1c0.8,0,1.6,0.1,2.3,0.3s1.3,0.5,1.7,0.8V31z"/>
	</g>
</g>
</svg>
